<mxfile host="app.diagrams.net" agent="Mozilla/5.0 (Windows NT 10.0; Win64; x64) AppleWebKit/537.36 (KHTML, like Gecko) Chrome/136.0.0.0 Safari/537.36" version="27.0.6">
  <diagram id="R2lEEEUBdFMjLlhIrx00" name="Page-1">
    <mxGraphModel dx="1901" dy="1578" grid="1" gridSize="10" guides="1" tooltips="1" connect="1" arrows="1" fold="1" page="1" pageScale="1" pageWidth="850" pageHeight="1100" math="0" shadow="0" extFonts="Permanent Marker^https://fonts.googleapis.com/css?family=Permanent+Marker">
      <root>
        <mxCell id="0" />
        <mxCell id="1" parent="0" />
        <mxCell id="A6qmrVI5I13Jj1zC-Mew-1" value="Ejercicio nro 2 - Diagrama de Clases UML&#xa;Nos requieren modelar un sistema de gestiÃ³n educativa para una facultad. En una primera etapa, debemos crear la estructura del software a partir de un Diagrama de Clases UML.&#xa;El sistema debe permitir registrar las carreras que dicta la facultad, las materias de cada carrera, los profesores y los alumnos.&#xa;Tanto de los profesores como de los alumnos se necesita conocer su nombre, apellido, dni,&#xa;domicilio y edad.&#xa;De los estudiantes en particular, es necesario registrar su nÃºmero de matrÃ­cula, la carrera a la que estÃ¡ inscripto, las materias aprobadas y las materias que se encuentra cursando.&#xa;í ¼í¾’Del profesor, su nÃºmero de legajo, su antigÃ¼edad docente, la carrera y las materias que dicta.&#xa;De la carrera, es necesario registrar el cÃ³digo, el nombre y el tÃ­tulo otorgado.&#xa;De las materias, el cÃ³digo, el nombre, a quÃ© carrera corresponde y la modalidad de cursado, que puede ser presencial o virtual.&#xa;&#xa;í ½í¿¡AdemÃ¡s, nos piden poder obtener el promedio de notas de cada alumno respecto de las materias ya aprobadas.&#xa;&#xa;Asimismo, el sistema debe permitir que cada alumno pueda inscribirse a rendir el examen final de las materias que se encuentra cursando.&#xa;Para poder anotarse a la mesa de examen los requisitos son: tener aprobados con nota igual o mayor a cuatro cada uno de los exÃ¡menes parciales y tener un promedio de asistencia igual o mayor al 75 %.&#xa;En caso de obtener una nota igual o mayor a cuatro en el examen final, la materia debe registrarse como aprobada." style="text;whiteSpace=wrap;fontSize=18;" parent="1" vertex="1">
          <mxGeometry x="-840" y="-10" width="760" height="510" as="geometry" />
        </mxCell>
        <mxCell id="A6qmrVI5I13Jj1zC-Mew-5" value="Carrera" style="swimlane;fontStyle=1;align=center;verticalAlign=top;childLayout=stackLayout;horizontal=1;startSize=30;horizontalStack=0;resizeParent=1;resizeLast=0;collapsible=1;marginBottom=0;rounded=0;shadow=0;strokeWidth=1;fontSize=20;" parent="1" vertex="1">
          <mxGeometry x="990" y="540" width="410" height="274" as="geometry">
            <mxRectangle x="550" y="140" width="160" height="26" as="alternateBounds" />
          </mxGeometry>
        </mxCell>
        <mxCell id="A6qmrVI5I13Jj1zC-Mew-6" value="+ codigo: int&#xa;+ nombre: str&#xa;+ titulo_otorgado: str" style="text;align=left;verticalAlign=top;spacingLeft=4;spacingRight=4;overflow=hidden;rotatable=0;points=[[0,0.5],[1,0.5]];portConstraint=eastwest;fontSize=20;" parent="A6qmrVI5I13Jj1zC-Mew-5" vertex="1">
          <mxGeometry y="30" width="410" height="134" as="geometry" />
        </mxCell>
        <mxCell id="A6qmrVI5I13Jj1zC-Mew-7" value="" style="line;html=1;strokeWidth=1;align=left;verticalAlign=middle;spacingTop=-1;spacingLeft=3;spacingRight=3;rotatable=0;labelPosition=right;points=[];portConstraint=eastwest;fontSize=20;" parent="A6qmrVI5I13Jj1zC-Mew-5" vertex="1">
          <mxGeometry y="164" width="410" height="30" as="geometry" />
        </mxCell>
        <mxCell id="A6qmrVI5I13Jj1zC-Mew-27" value="Final" style="swimlane;fontStyle=1;align=center;verticalAlign=top;childLayout=stackLayout;horizontal=1;startSize=30;horizontalStack=0;resizeParent=1;resizeLast=0;collapsible=1;marginBottom=0;rounded=0;shadow=0;strokeWidth=1;fontSize=20;" parent="1" vertex="1">
          <mxGeometry x="1000" y="310" width="356" height="194" as="geometry">
            <mxRectangle x="230" y="140" width="160" height="26" as="alternateBounds" />
          </mxGeometry>
        </mxCell>
        <mxCell id="A6qmrVI5I13Jj1zC-Mew-28" value="+ nota_primer_parcial: tinyint&#xa;+ nota_segundo_parcial: tinyint&#xa;+ dni: str&#xa;+ domicilio: str&#xa;+ edad: tinyint" style="text;align=left;verticalAlign=top;spacingLeft=4;spacingRight=4;overflow=hidden;rotatable=0;points=[[0,0.5],[1,0.5]];portConstraint=eastwest;fontSize=20;" parent="A6qmrVI5I13Jj1zC-Mew-27" vertex="1">
          <mxGeometry y="30" width="356" height="140" as="geometry" />
        </mxCell>
        <mxCell id="A6qmrVI5I13Jj1zC-Mew-29" value="" style="line;html=1;strokeWidth=1;align=left;verticalAlign=middle;spacingTop=-1;spacingLeft=3;spacingRight=3;rotatable=0;labelPosition=right;points=[];portConstraint=eastwest;fontSize=20;" parent="A6qmrVI5I13Jj1zC-Mew-27" vertex="1">
          <mxGeometry y="170" width="356" height="8" as="geometry" />
        </mxCell>
        <mxCell id="LrnWb1vMRJ4Bcc8fWhRj-1" value="Materia" style="swimlane;fontStyle=1;align=center;verticalAlign=top;childLayout=stackLayout;horizontal=1;startSize=30;horizontalStack=0;resizeParent=1;resizeLast=0;collapsible=1;marginBottom=0;rounded=0;shadow=0;strokeWidth=1;fontSize=20;" vertex="1" parent="1">
          <mxGeometry x="440" y="-230" width="426" height="194" as="geometry">
            <mxRectangle x="230" y="140" width="160" height="26" as="alternateBounds" />
          </mxGeometry>
        </mxCell>
        <mxCell id="LrnWb1vMRJ4Bcc8fWhRj-2" value="+ codigo: str&#xa;+ nombre: str&#xa;+ carrera: str&#xa;+ modalidad_de_cursada: &#39;Presencial&#39; | &#39;Virtual&#39;&#xa;+ edad: tinyint" style="text;align=left;verticalAlign=top;spacingLeft=4;spacingRight=4;overflow=hidden;rotatable=0;points=[[0,0.5],[1,0.5]];portConstraint=eastwest;fontSize=20;" vertex="1" parent="LrnWb1vMRJ4Bcc8fWhRj-1">
          <mxGeometry y="30" width="426" height="140" as="geometry" />
        </mxCell>
        <mxCell id="LrnWb1vMRJ4Bcc8fWhRj-3" value="" style="line;html=1;strokeWidth=1;align=left;verticalAlign=middle;spacingTop=-1;spacingLeft=3;spacingRight=3;rotatable=0;labelPosition=right;points=[];portConstraint=eastwest;fontSize=20;" vertex="1" parent="LrnWb1vMRJ4Bcc8fWhRj-1">
          <mxGeometry y="170" width="426" height="8" as="geometry" />
        </mxCell>
        <mxCell id="LrnWb1vMRJ4Bcc8fWhRj-11" value="" style="group" vertex="1" connectable="0" parent="1">
          <mxGeometry x="-70" y="30" width="480" height="500" as="geometry" />
        </mxCell>
        <mxCell id="A6qmrVI5I13Jj1zC-Mew-19" value="Alumno" style="swimlane;fontStyle=1;align=center;verticalAlign=top;childLayout=stackLayout;horizontal=1;startSize=30;horizontalStack=0;resizeParent=1;resizeLast=0;collapsible=1;marginBottom=0;rounded=0;shadow=0;strokeWidth=1;fontSize=20;" parent="LrnWb1vMRJ4Bcc8fWhRj-11" vertex="1">
          <mxGeometry width="480" height="360" as="geometry">
            <mxRectangle x="230" y="140" width="160" height="26" as="alternateBounds" />
          </mxGeometry>
        </mxCell>
        <mxCell id="A6qmrVI5I13Jj1zC-Mew-20" value="+ nombre: str&#xa;+ apellido: str&#xa;+ dni: str&#xa;+ domicilio: str&#xa;+ edad: tinyint&#xa;+ numero_matricula: int&#xa;+ carrera_inscripto: Carrera" style="text;align=left;verticalAlign=top;spacingLeft=4;spacingRight=4;overflow=hidden;rotatable=0;points=[[0,0.5],[1,0.5]];portConstraint=eastwest;fontSize=20;" parent="A6qmrVI5I13Jj1zC-Mew-19" vertex="1">
          <mxGeometry y="30" width="480" height="200" as="geometry" />
        </mxCell>
        <mxCell id="A6qmrVI5I13Jj1zC-Mew-21" value="" style="line;html=1;strokeWidth=1;align=left;verticalAlign=middle;spacingTop=-1;spacingLeft=3;spacingRight=3;rotatable=0;labelPosition=right;points=[];portConstraint=eastwest;fontSize=20;" parent="A6qmrVI5I13Jj1zC-Mew-19" vertex="1">
          <mxGeometry y="230" width="480" height="10.81081081081081" as="geometry" />
        </mxCell>
        <mxCell id="LrnWb1vMRJ4Bcc8fWhRj-10" value="+ promedio_materias_aprobadas(Carreras[])&#xa;+ materias_aprobadas(): (RegistroDeAprobacion[])&#xa;+ materias_en_curso()" style="text;align=left;verticalAlign=top;spacingLeft=4;spacingRight=4;overflow=hidden;rotatable=0;points=[[0,0.5],[1,0.5]];portConstraint=eastwest;fontSize=20;" vertex="1" parent="A6qmrVI5I13Jj1zC-Mew-19">
          <mxGeometry y="240.8108108108108" width="480" height="82.43" as="geometry" />
        </mxCell>
        <mxCell id="LrnWb1vMRJ4Bcc8fWhRj-12" value="" style="group" vertex="1" connectable="0" parent="1">
          <mxGeometry x="440" y="40" width="310" height="320" as="geometry" />
        </mxCell>
        <mxCell id="LrnWb1vMRJ4Bcc8fWhRj-13" value="RegistroDeAprobacion" style="swimlane;fontStyle=1;align=center;verticalAlign=top;childLayout=stackLayout;horizontal=1;startSize=30;horizontalStack=0;resizeParent=1;resizeLast=0;collapsible=1;marginBottom=0;rounded=0;shadow=0;strokeWidth=1;fontSize=20;" vertex="1" parent="LrnWb1vMRJ4Bcc8fWhRj-12">
          <mxGeometry width="310" height="320" as="geometry">
            <mxRectangle x="230" y="140" width="160" height="26" as="alternateBounds" />
          </mxGeometry>
        </mxCell>
        <mxCell id="LrnWb1vMRJ4Bcc8fWhRj-14" value="+ materia: Materia&#xa;+ nota: float&#xa;+ fecha: date&#xa;+ alumno: Alumno&#xa;+ estado: str&#xa;+ tipo_de_examen: []" style="text;align=left;verticalAlign=top;spacingLeft=4;spacingRight=4;overflow=hidden;rotatable=0;points=[[0,0.5],[1,0.5]];portConstraint=eastwest;fontSize=20;" vertex="1" parent="LrnWb1vMRJ4Bcc8fWhRj-13">
          <mxGeometry y="30" width="310" height="230" as="geometry" />
        </mxCell>
        <mxCell id="LrnWb1vMRJ4Bcc8fWhRj-15" value="" style="line;html=1;strokeWidth=1;align=left;verticalAlign=middle;spacingTop=-1;spacingLeft=3;spacingRight=3;rotatable=0;labelPosition=right;points=[];portConstraint=eastwest;fontSize=20;" vertex="1" parent="LrnWb1vMRJ4Bcc8fWhRj-13">
          <mxGeometry y="260" width="310" height="8" as="geometry" />
        </mxCell>
        <mxCell id="LrnWb1vMRJ4Bcc8fWhRj-19" value="" style="group" vertex="1" connectable="0" parent="1">
          <mxGeometry x="-60" y="-436" width="360" height="420" as="geometry" />
        </mxCell>
        <mxCell id="LrnWb1vMRJ4Bcc8fWhRj-4" value="Profesor" style="swimlane;fontStyle=1;align=center;verticalAlign=top;childLayout=stackLayout;horizontal=1;startSize=35;horizontalStack=0;resizeParent=1;resizeLast=0;collapsible=1;marginBottom=0;rounded=0;shadow=0;strokeWidth=1;fontSize=20;" vertex="1" parent="LrnWb1vMRJ4Bcc8fWhRj-19">
          <mxGeometry x="13" width="347" height="420" as="geometry">
            <mxRectangle x="230" y="140" width="160" height="26" as="alternateBounds" />
          </mxGeometry>
        </mxCell>
        <mxCell id="LrnWb1vMRJ4Bcc8fWhRj-5" value="+ nombre: str&#xa;+ apellido: str&#xa;+ dni: str&#xa;+ domicilio: str&#xa;+ edad: tinyint&#xa;+ numero_legajo: int&#xa;+ antiguedad_docente: DATE&#xa;+ materias_que_dicta: Materia[]" style="text;align=left;verticalAlign=top;spacingLeft=4;spacingRight=4;overflow=hidden;rotatable=0;points=[[0,0.5],[1,0.5]];portConstraint=eastwest;fontSize=20;" vertex="1" parent="LrnWb1vMRJ4Bcc8fWhRj-4">
          <mxGeometry y="35" width="347" height="215" as="geometry" />
        </mxCell>
        <mxCell id="LrnWb1vMRJ4Bcc8fWhRj-6" value="" style="line;html=1;strokeWidth=1;align=left;verticalAlign=middle;spacingTop=-1;spacingLeft=3;spacingRight=3;rotatable=0;labelPosition=right;points=[];portConstraint=eastwest;fontSize=20;" vertex="1" parent="LrnWb1vMRJ4Bcc8fWhRj-4">
          <mxGeometry y="250" width="347" height="8" as="geometry" />
        </mxCell>
        <mxCell id="LrnWb1vMRJ4Bcc8fWhRj-18" value="asignar_nota(&#xa;Â Â Â Â Â Â Â Â materia: Materia, &#xa;Â Â Â Â Â Â Â Â nota:float, &#xa;Â Â Â Â Â Â Â Â nro_alumno: int,&#xa; Â Â Â Â Â Â Â fecha: date, &#xa;Â Â Â Â Â Â Â Â estado: str): RegistroDeNotas" style="text;align=left;verticalAlign=top;spacingLeft=4;spacingRight=4;overflow=hidden;rotatable=0;points=[[0,0.5],[1,0.5]];portConstraint=eastwest;fontSize=20;" vertex="1" parent="LrnWb1vMRJ4Bcc8fWhRj-4">
          <mxGeometry y="258" width="347" height="162" as="geometry" />
        </mxCell>
        <mxCell id="LrnWb1vMRJ4Bcc8fWhRj-8" value="" style="resizable=0;align=right;verticalAlign=bottom;labelBackgroundColor=none;fontSize=20;" connectable="0" vertex="1" parent="LrnWb1vMRJ4Bcc8fWhRj-19">
          <mxGeometry y="170" as="geometry" />
        </mxCell>
        <mxCell id="LrnWb1vMRJ4Bcc8fWhRj-20" value="&lt;font style=&quot;font-size: 16px; color: light-dark(rgb(0, 0, 0), rgb(255, 0, 0));&quot;&gt;crea el objeto dentro del metodo y lo retorna&lt;/font&gt;" style="text;html=1;align=center;verticalAlign=middle;resizable=0;points=[];autosize=1;strokeColor=none;fillColor=none;" vertex="1" parent="1">
          <mxGeometry x="-410" y="-160" width="340" height="30" as="geometry" />
        </mxCell>
        <mxCell id="LrnWb1vMRJ4Bcc8fWhRj-22" value="los tipos de dato para mÃ­ son:&#39;Primer parcial&#39; | &#39;Segundo parcial&#39; |&lt;br&gt;&amp;nbsp;&#39;Recuperatorio primer parcial&#39; | &#39;Recuperatorio segundo parcial&#39; | &#39;Final&#39; | &#39;Final instancia X&#39;" style="text;html=1;align=center;verticalAlign=middle;resizable=0;points=[];autosize=1;strokeColor=none;fillColor=none;fontSize=14;" vertex="1" parent="1">
          <mxGeometry x="800" y="30" width="580" height="50" as="geometry" />
        </mxCell>
      </root>
    </mxGraphModel>
  </diagram>
</mxfile>
